# xmcd
#
# Track frame offsets:
#	150
#	17660
#	32337
#	48611
#	97485
#	129502
#	163578
#	207228
#	239707
#	268070
#	287244
#	305706
#
# Disc length: 4397 seconds
# Revision: 0
# Processed by: cddbd v1.5.2PL0 Copyright (c) Steve Scherf et al.
# Submitted via: dBpowerAMP V12.0
#
DISCID=b6112b0c
DTITLE=Deni Hines - I Like The Way
DYEAR=1998
DGENRE=House
TTITLE0=I Like The Way [David Morales Prelude Radio Edit]
TTITLE1=I Like The Way [David Morales Classic Radio Edit]
TTITLE2=I Like The Way [Album Mix Radio Edit]
TTITLE3=I Like The Way [David Morales Prelude Mix]
TTITLE4=I Like The Way [Dave Audé's Other Rubber Dub]
TTITLE5=I Like The Way [Thunderpuss 2000 Club Mix]
TTITLE6=I Like The Way [David Morales Classic Club Mix]
TTITLE7=I Like The Way [Dave Audé's Mr. Nice Guy London Vocal]
TTITLE8=I Like The Way [Deep Hard Cox Dub]
TTITLE9=I Like The Way [Richie P Chill Mix]
TTITLE10=I Like The Way [Don-E Master Mix]
TTITLE11=I Like The Way [Don-E 90 BPM Master Mix]
EXTD=
EXTT0=
EXTT1=
EXTT2=
EXTT3=
EXTT4=
EXTT5=
EXTT6=
EXTT7=
EXTT8=
EXTT9=
EXTT10=
EXTT11=
PLAYORDER=
